<?xml version="1.0" standalone="no"?>
<!DOCTYPE svg PUBLIC "-//W3C//DTD SVG 20010904//EN"
 "http://www.w3.org/TR/2001/REC-SVG-20010904/DTD/svg10.dtd">
<svg version="1.0" xmlns="http://www.w3.org/2000/svg"
 width="287.000000pt" height="50.000000pt" viewBox="0 0 287.000000 50.000000"
 preserveAspectRatio="xMidYMid meet">

<g transform="translate(0.000000,50.000000) scale(0.100000,-0.100000)"
fill="#000000" stroke="none">
<path d="M615 482 c-31 -20 -107 -98 -182 -189 -35 -42 -65 -62 -160 -111 -65
-33 -149 -72 -188 -87 -87 -34 -105 -49 -50 -42 22 2 103 34 180 69 77 36 142
64 144 62 1 -1 -4 -32 -13 -67 -21 -84 -10 -117 40 -117 58 0 95 77 61 125
-13 16 -14 14 -20 -24 -9 -72 -59 -102 -73 -45 -14 56 66 164 184 247 101 71
154 129 150 165 -4 34 -32 39 -73 14z m45 -25 c0 -15 -109 -123 -152 -151 -15
-10 -33 -16 -40 -13 -8 3 22 39 76 91 84 82 116 102 116 73z"/>
<path d="M1288 470 c-14 -4 -49 -21 -77 -36 l-51 -29 -25 30 -25 30 6 -60 c4
-42 1 -73 -10 -104 -29 -80 -16 -144 35 -172 45 -24 65 34 48 143 -14 88 -8
107 41 141 51 36 97 50 121 36 35 -18 22 -54 -46 -128 -99 -108 -85 -151 50
-151 101 0 191 25 257 72 14 10 21 8 41 -10 30 -28 67 -28 102 0 28 22 78 35
170 45 27 3 61 14 74 25 22 17 35 18 145 12 142 -8 280 7 346 38 43 20 123 35
220 42 25 1 58 6 73 10 21 6 33 4 47 -9 22 -20 36 -15 26 10 -9 26 -53 37 -96
24 -31 -10 -42 -9 -60 4 -25 17 -50 13 -50 -9 0 -19 -70 -18 -117 1 -19 8 -44
15 -55 15 -32 0 -93 -37 -105 -63 -9 -19 -24 -28 -63 -36 -70 -15 -111 -14
-214 8 l-88 19 -17 -29 c-17 -31 -34 -35 -74 -20 -20 8 -30 6 -48 -9 -14 -13
-35 -19 -61 -18 -29 1 -45 -5 -66 -25 -36 -35 -58 -34 -77 2 -10 21 -20 28
-33 24 -10 -2 -24 3 -31 11 -8 9 -29 16 -49 16 -29 0 -43 -9 -91 -59 -61 -64
-108 -83 -160 -65 -43 16 -38 41 22 103 30 31 60 66 66 78 36 71 -16 119 -101
93z m1202 -59 c0 -9 -61 -51 -74 -51 -17 0 -2 23 27 40 35 22 47 25 47 11z
m-1324 -173 c6 -59 4 -68 -11 -74 -24 -10 -35 12 -35 69 0 52 16 95 30 81 5
-5 12 -39 16 -76z m414 54 c0 -23 -94 -82 -108 -68 -7 8 19 37 53 58 32 19 55
23 55 10z"/>
<path d="M842 369 c-5 -13 -17 -61 -27 -106 -10 -45 -21 -81 -25 -78 -3 2 -15
31 -25 65 -24 78 -39 91 -60 51 -8 -17 -18 -52 -22 -77 -5 -38 -3 -46 8 -42 8
3 15 21 17 42 5 59 25 38 49 -53 12 -46 25 -86 28 -90 15 -15 34 38 58 162 16
79 22 136 17 141 -6 6 -13 0 -18 -15z"/>
<path d="M940 304 c0 -14 4 -23 10 -19 6 3 10 15 10 26 0 10 -4 19 -10 19 -5
0 -10 -12 -10 -26z"/>
<path d="M600 90 c0 -5 7 -10 15 -10 8 0 15 5 15 10 0 6 -7 10 -15 10 -8 0
-15 -4 -15 -10z"/>
</g>
</svg>
